<svg width="100" height="67" viewBox="0 0 100 67" fill="none" xmlns="http://www.w3.org/2000/svg">
<g clip-path="url(#clip0_1_9422)">
<path fill-rule="evenodd" clip-rule="evenodd" d="M0 66.6664H99.9987V0H0V66.6664Z" fill="#003671"/>
<path fill-rule="evenodd" clip-rule="evenodd" d="M26.318 44.4043L27.8416 48.1331L31.7078 47.0162L29.8097 50.5688L33.0626 52.8589L29.1014 53.522L29.3218 57.5395L26.3641 54.8842L23.303 57.5395L23.5262 53.5653L19.5742 52.8589L22.805 50.5688L20.9198 47.0494L24.7879 48.1331L26.318 44.4043Z" fill="white"/>
<path fill-rule="evenodd" clip-rule="evenodd" d="M45.5267 0.000488281L29.1672 11.2874V0.000488281H20.8279V11.2994L4.50259 0.000488281H0V4.64696L11.037 12.2816H0V23.7908H11.0702L0 31.4587V35.3194H5.59273L20.8279 24.7869V35.3194H29.1672V24.8192L44.3711 35.3194H49.9961V31.4716L38.9158 23.7908H49.9961V12.2816H38.9268L49.9961 4.62759V0.000488281H45.5267Z" fill="white"/>
<path fill-rule="evenodd" clip-rule="evenodd" d="M57.7051 27.0322L58.667 29.3887L61.1074 28.6702L59.9112 30.916L61.9485 32.3547L59.4537 32.7762L59.6041 35.3088L57.7401 33.6385L55.807 35.3088L55.9518 32.8094L53.457 32.3547L55.4971 30.916L54.3083 28.7043L56.7376 29.3887L57.7051 27.0322Z" fill="white"/>
<path fill-rule="evenodd" clip-rule="evenodd" d="M79.6393 31.6252L80.0147 30.3755L80.4251 31.6252L81.7264 31.6362L80.6676 32.411L81.043 33.6155L80.0497 32.8859L78.9799 33.6727L79.3737 32.3879L78.3389 31.6362L79.6393 31.6252Z" fill="white"/>
<path fill-rule="evenodd" clip-rule="evenodd" d="M72.5863 3.46484L73.5371 5.83235L75.9895 5.11204L74.7841 7.34766L76.8361 8.78642L74.3312 9.21713L74.4852 11.7405L72.6204 10.0712L70.679 11.7405L70.8339 9.23926L68.3271 8.78642L70.3802 7.34766L69.1793 5.14525L71.6197 5.83235L72.5863 3.46484Z" fill="white"/>
<path fill-rule="evenodd" clip-rule="evenodd" d="M84.5328 18.8447L85.4947 21.2021L87.9351 20.4827L86.7509 22.7174L88.7863 24.1663L86.3008 24.5998L86.4354 27.1213L84.5549 25.451L82.6338 27.1213L82.7795 24.6311L80.2939 24.1663L82.3359 22.7174L81.1452 20.515L83.5745 21.2021L84.5328 18.8447Z" fill="white"/>
<path fill-rule="evenodd" clip-rule="evenodd" d="M75.2366 50.2036L76.1884 52.5481L78.6399 51.8499L77.4345 54.0975L79.4865 55.5372L76.9899 55.9559L77.1356 58.4673L75.2588 56.7979L73.3377 58.4673L73.4613 55.9891L70.9775 55.5372L73.0186 54.0975L71.8343 51.8849L74.2747 52.5481L75.2366 50.2036Z" fill="white"/>
<path fill-rule="evenodd" clip-rule="evenodd" d="M33.3281 23.791H37.0403L49.9975 32.7529V35.3196L33.3281 23.791Z" fill="#DC2F34"/>
<path fill-rule="evenodd" clip-rule="evenodd" d="M16.6574 23.791L0 35.3196H3.71773L20.3871 23.791H16.6574Z" fill="#DC2F34"/>
<path fill-rule="evenodd" clip-rule="evenodd" d="M22.4899 0.000488281V14.5836H0V21.4999H22.4899V35.3194H27.5034V21.4999H49.997V14.5836H27.5034V0.000488281H22.4899Z" fill="#DC2F34"/>
<path fill-rule="evenodd" clip-rule="evenodd" d="M0 3.34233L12.912 12.282H16.6574L0 0.887207V3.34233Z" fill="#DC2F34"/>
<path fill-rule="evenodd" clip-rule="evenodd" d="M47.3385 0.000976562L29.6104 12.2821H33.3391L49.9984 0.719436V0.000976562H47.3385Z" fill="#DC2F34"/>
</g>
<defs>
<clipPath id="clip0_1_9422">
<rect width="100" height="66.6667" fill="white"/>
</clipPath>
</defs>
</svg>
