<svg width="500" height="500" viewBox="0 0 500 500" fill="none" xmlns="http://www.w3.org/2000/svg">
<path d="M408.028 330.84C407.465 335.056 407.199 338.796 406.441 342.44C404.298 352.796 394.53 362.489 384.074 363.749C375.073 364.833 365.958 365.069 356.882 365.34C327.567 366.209 298.252 366.941 268.933 367.679C246.299 368.247 223.66 368.743 201.021 369.271C191.364 369.496 184.05 365.732 179.859 356.767C179.231 355.421 178.819 353.961 178.433 352.52C177.088 347.52 172.826 344.122 167.611 344.278C163.605 344.398 159.614 344.86 155.614 345.151C138.833 346.366 122.057 346.431 105.326 344.458C96.8031 343.454 88.2395 342.586 79.8115 341.015C71.3132 339.429 62.9404 337.12 54.5525 334.981C50.0449 333.832 45.3615 332.923 41.2002 330.965C26.8892 324.234 23.8422 308.713 32.9579 295.923C34.6445 293.559 36.2358 291.124 37.9726 288.795C38.9665 287.465 38.841 286.582 37.5861 285.437C31.0756 279.499 24.8361 273.249 18.1449 267.522C9.73193 260.314 5.99227 251.414 7.23213 240.501C8.25112 231.556 9.5713 222.646 10.766 213.716C12.1514 203.34 16.3679 193.923 20.5192 184.446C23.28 178.142 25.7346 171.686 27.9031 165.156C29.2534 161.08 29.5596 156.673 30.7643 152.536C33.5452 143.009 41.4813 138.351 50.5719 137.814C53.0567 137.668 55.687 137.839 57.9709 137.046C60.6364 136.122 63.3068 134.661 65.4302 132.814C72.2971 126.841 79.3296 121.229 87.9785 117.971C99.1372 113.774 110.532 112.941 122.193 115.295C133.371 117.554 142.813 123.357 152.06 129.667C161.873 136.363 171.722 142.989 179.879 151.738C185.425 157.686 189.652 164.573 193.12 171.852C197.914 181.906 202.241 192.182 206.945 202.276C214.394 218.264 226.667 229.262 242.971 235.602C252.207 239.196 262.031 239.648 271.854 238.794C279.916 238.092 287.957 237.093 296.014 236.315C297.901 236.134 299.216 235.471 300.31 233.845C302.85 230.06 305.621 226.436 308.232 222.696C312.307 216.848 317.814 213.234 324.897 212.361C332.105 211.472 339.338 210.815 346.572 210.147C356.962 209.193 367.368 208.45 377.744 207.391C390.062 206.136 401.788 208.621 412.831 213.616C424.843 219.052 436.494 225.306 448.2 231.405C457.26 236.124 466.261 240.983 475.1 246.098C480.341 249.13 485.446 252.533 488.879 257.789C492.709 263.647 493.272 270.027 490.22 276.111C486.068 284.393 481.059 292.234 476.606 300.371C473.098 306.786 470.005 313.427 466.502 319.842C459.258 333.104 444.184 341.095 427.639 336.025C421.214 334.058 414.648 332.567 408.043 330.83L408.028 330.84ZM393.711 315.103C397.983 316.032 401.643 316.77 405.272 317.623C412.4 319.305 419.487 321.167 426.635 322.738C431.078 323.717 435.696 325.243 440.083 324.852C447.834 324.164 453.064 319.169 456.553 312.282C460.192 305.099 463.871 297.926 467.747 290.868C470.979 284.985 474.598 279.318 477.911 273.475C480.441 269.008 480.11 265.444 476.817 262.608C474.443 260.56 471.913 258.597 469.197 257.046C461.261 252.513 453.29 248.015 445.153 243.849C431.264 236.736 417.977 228.378 403.158 223.173C395.805 220.588 388.24 218.926 380.339 219.624C363.458 221.12 346.567 222.556 329.691 224.137C325.6 224.518 321.604 225.377 318.954 229.121C315.455 234.066 311.77 238.88 308.337 243.864C306.264 246.871 303.578 248.181 299.979 248.442C292.736 248.974 285.492 249.617 278.289 250.54C262.322 252.583 246.756 251.7 232.098 244.386C217.918 237.313 206.136 227.45 198.823 213.164C193.768 203.28 189.461 193.02 184.768 182.95C179.678 172.028 173.94 161.481 164.172 153.952C156.758 148.234 149.043 142.899 141.363 137.538C135.194 133.231 128.688 129.596 121.224 127.85C111.782 125.641 102.526 126.048 93.3797 129.195C86.051 131.715 79.9571 136.222 74.4856 141.518C68.2562 147.547 60.9125 150.267 52.3539 150.282C45.5824 150.293 42.7563 152.652 41.7474 159.343C40.131 170.07 36.1504 179.969 31.8185 189.827C28.7213 196.875 25.579 204.093 23.9828 211.558C21.7591 221.958 20.8806 232.655 19.5855 243.247C18.938 248.542 20.7752 253.055 24.7357 256.694C33.0684 264.349 41.3709 272.04 49.6935 279.705C53.6724 283.369 54.0958 287.391 50.9635 291.772C48.1223 295.768 45.3314 299.798 42.5806 303.859C38.836 309.381 39.4986 315.174 44.5333 318.612C46.3855 319.877 48.7448 320.504 50.9534 321.142C56.957 322.874 62.9605 324.646 69.0493 326.046C80.7602 328.747 92.5715 330.78 104.558 332C124.421 334.022 144.264 334.143 164.077 331.904C175.642 330.599 187.92 337.767 190.445 349.448C191.519 354.422 194.646 356.721 199.736 356.802C200.821 356.817 201.91 356.812 202.994 356.787C231.144 356.074 259.295 355.336 287.44 354.638C316.594 353.915 345.749 353.293 374.898 352.46C378.411 352.359 382.216 351.887 385.334 350.412C392.692 346.923 396.111 339.112 395.047 330.745C394.409 325.72 394.158 320.645 393.696 315.098L393.711 315.103ZM304.989 375.339C305.119 373.367 304.647 372.689 302.469 373.035C292.108 374.702 281.723 376.203 271.347 377.774C270.549 377.894 269.761 378.12 268.973 378.301C268.998 378.447 269.023 378.592 269.043 378.738C280.633 381.443 292.229 384.149 304.467 387C304.647 382.783 304.743 379.054 304.989 375.334V375.339ZM199.084 348.278C197.463 343.003 195.56 338.068 191.775 334.108C184.507 326.503 175.717 322.678 165.121 323.536C148.787 324.857 132.443 326.031 116.079 324.5C106.2 323.577 96.271 322.638 86.5379 320.791C74.7115 318.542 63.0659 315.349 51.35 312.523C48.6143 311.866 48.2077 310.731 49.7688 308.432C53.8247 302.459 57.986 296.556 61.9415 290.517C64.7625 286.21 63.5779 280.588 59.6023 277.155C50.3712 269.183 41.903 260.319 32.5262 252.528C27.2154 248.116 27.868 243.091 28.5507 237.645C29.3287 231.445 30.428 225.281 31.1007 219.072C32.0042 210.734 35.0562 203.125 38.4545 195.595C42.3598 186.951 46.4508 178.373 48.4888 169.031C49.1966 165.773 49.7989 162.495 50.4967 159.002C52.8358 158.846 55.1398 158.761 57.4338 158.525C67.418 157.506 75.4093 152.652 82.5121 145.82C91.9842 136.709 103.474 133.482 116.345 135.444C122.147 136.328 127.584 138.562 132.458 141.905C140.534 147.441 148.576 153.033 156.562 158.69C165.231 164.834 170.838 173.423 175.276 182.83C180.34 193.572 184.933 204.545 190.219 215.172C198.431 231.676 211.477 243.382 227.806 251.695C240.486 258.15 253.989 260.6 268.024 259.792C279.68 259.124 291.285 257.683 302.921 256.609C308.196 256.122 312.001 253.251 315.003 249.145C318.442 244.446 321.694 239.602 325.298 235.03C326.237 233.84 328.124 232.921 329.665 232.766C339.047 231.817 348.459 231.179 357.856 230.321C364.582 229.709 371.299 228.936 378.01 228.188C385.976 227.304 393.872 228.233 401.035 231.496C414.182 237.484 427.042 244.12 439.907 250.701C448.185 254.933 456.302 259.495 464.419 264.028C466.507 265.193 469.273 266.453 469.995 268.335C470.583 269.856 468.776 272.496 467.676 274.434C464.925 279.268 461.808 283.896 459.138 288.775C455.343 295.697 451.834 302.77 448.175 309.767C445.69 314.516 440.269 317.849 433.753 316.117C420.968 312.719 408.058 309.798 395.157 306.846C389.179 305.481 384.947 309.24 385.309 315.415C385.615 320.74 386.097 326.061 386.599 331.377C386.985 335.468 386.689 339.529 382.949 341.843C380.69 343.239 377.689 343.961 374.993 344.047C358.207 344.604 341.417 344.88 324.626 345.272C294.643 345.974 264.656 346.687 234.673 347.41C223.981 347.671 213.295 347.987 202.608 348.268C201.448 348.298 200.294 348.268 199.079 348.268L199.084 348.278ZM67.8848 304.231C73.7377 305.591 78.9431 307.212 84.269 307.955C96.4868 309.662 108.73 311.534 121.023 312.217C132.669 312.865 144.41 312.413 156.075 311.8C163.158 311.429 170.145 310.44 177.203 312.046C189.607 314.867 199.229 321.594 205.775 332.446C207.331 335.026 208.917 335.845 211.849 335.754C240.742 334.866 269.635 334.083 298.534 333.35C322.924 332.732 347.315 332.215 371.705 331.703C373.407 331.668 374.115 331.257 373.924 329.404C373.487 325.173 373.271 320.921 372.88 316.679C371.881 305.762 378.602 296.32 389.39 294.608C393.275 293.991 397.531 294.723 401.462 295.567C412.616 297.966 423.704 300.667 434.772 303.433C436.901 303.965 437.618 303.322 438.547 301.58C443.286 292.726 448.105 283.911 453.084 275.192C454.219 273.204 454.148 272.255 452.1 271.186C436.499 263.034 420.988 254.697 405.327 246.665C397.321 242.559 388.898 239.633 379.631 240.596C377.638 240.802 375.651 241.073 373.658 241.254C361.018 242.398 348.374 243.493 335.744 244.728C334.575 244.843 333.169 245.561 332.421 246.459C330.198 249.135 328.17 251.991 326.202 254.867C321.052 262.402 314.451 267.803 305.069 268.772C292.535 270.067 279.986 271.277 267.422 272.25C257.849 272.988 248.397 271.553 239.131 269.294C231.024 267.316 223.474 263.832 216.271 259.591C200.364 250.224 187.634 237.73 179.336 221.175C173.945 210.418 169.342 199.264 164.197 188.382C160.959 181.535 157.25 174.844 151.061 170.19C143.295 164.353 135.239 158.901 127.308 153.284C123.533 150.609 119.402 148.651 114.854 147.808C105.502 146.076 97.3703 148.656 90.5486 155.237C82.7731 162.731 74.0088 168.323 63.1261 170.13C62.1423 170.291 60.7468 171.38 60.541 172.264C58.4528 181.319 54.668 189.722 50.9434 198.16C48.9004 202.793 46.24 207.331 45.231 212.2C43.2432 221.813 42.1791 231.621 40.8539 241.364C40.7434 242.178 41.2655 243.357 41.8929 243.944C50.3661 251.906 58.5733 260.203 67.5334 267.587C76.9252 275.332 78.5566 288.599 71.7048 298.523C70.5352 300.22 69.4108 301.947 67.8898 304.226L67.8848 304.231Z" fill="#15151E"/>
</svg>
