<svg width="100" height="67" viewBox="0 0 100 67" fill="none" xmlns="http://www.w3.org/2000/svg">
<g clip-path="url(#clip0_1_9550)">
<path fill-rule="evenodd" clip-rule="evenodd" d="M0 66.6673H100V0H0V66.6673Z" fill="#E30613"/>
<path fill-rule="evenodd" clip-rule="evenodd" d="M38.9902 11.3276L39.2226 13.4969L37.3135 14.4727L39.3896 14.9283L39.6884 17.0837L40.761 15.1994L42.8473 15.5619L41.4417 13.9396L42.4138 12.0101L40.4733 12.8937L38.9902 11.3276Z" fill="#FFD300"/>
<path fill-rule="evenodd" clip-rule="evenodd" d="M31.2869 5.33387L32.3439 7.24025L30.9688 8.89762L33.0614 8.46875L34.1756 10.318L34.42 8.14964L36.4933 7.61471L34.551 6.73022L34.7197 4.56006L33.2616 6.16209L31.2869 5.33387Z" fill="#FFD300"/>
<path fill-rule="evenodd" clip-rule="evenodd" d="M40.1527 21.2397L39.4674 23.2946L37.3369 23.3398L39.0339 24.6688L38.4086 26.7477L40.1527 25.51L41.906 26.7477L41.2797 24.6688L42.9795 23.3398L40.849 23.2946L40.1527 21.2397Z" fill="#FFD300"/>
<path fill-rule="evenodd" clip-rule="evenodd" d="M34.5518 28.2803L33.209 29.9828L31.1983 29.2902L32.3678 31.1311L31.1006 32.8669L33.1527 32.2996L34.3867 34.0806L34.4974 31.9021L36.5274 31.2556L34.5325 30.4707L34.5518 28.2803Z" fill="#FFD300"/>
<path fill-rule="evenodd" clip-rule="evenodd" d="M16.7393 7.84277L14.5452 14.3376L7.84375 14.4722L13.1875 18.6161L11.2461 25.1792L16.7393 21.2502L22.2399 25.1792L20.2763 18.6161L25.6201 14.4722L18.9205 14.3376L16.7393 7.84277Z" fill="#FFD300"/>
</g>
<defs>
<clipPath id="clip0_1_9550">
<rect width="100" height="66.6667" fill="white"/>
</clipPath>
</defs>
</svg>
