<svg width="100" height="67" viewBox="0 0 100 67" fill="none" xmlns="http://www.w3.org/2000/svg">
<g clip-path="url(#clip0_1_9821)">
<path fill-rule="evenodd" clip-rule="evenodd" d="M0 66.6882H99.9825V61.563H0V66.6882Z" fill="#E30613"/>
<path fill-rule="evenodd" clip-rule="evenodd" d="M0 61.5622H99.9825V56.436H0V61.5622Z" fill="white"/>
<path fill-rule="evenodd" clip-rule="evenodd" d="M0 56.4363H99.9825V51.311H0V56.4363Z" fill="#E30613"/>
<path fill-rule="evenodd" clip-rule="evenodd" d="M0 51.3108H99.9825V46.1855H0V51.3108Z" fill="white"/>
<path fill-rule="evenodd" clip-rule="evenodd" d="M0 46.1848H99.9825V41.0596H0V46.1848Z" fill="#E30613"/>
<path fill-rule="evenodd" clip-rule="evenodd" d="M0 41.0593H99.9825V35.9331H0V41.0593Z" fill="white"/>
<path fill-rule="evenodd" clip-rule="evenodd" d="M0 35.9333H99.9825V30.8081H0V35.9333Z" fill="#E30613"/>
<path fill-rule="evenodd" clip-rule="evenodd" d="M0 30.8074H99.9825V25.6821H0V30.8074Z" fill="white"/>
<path fill-rule="evenodd" clip-rule="evenodd" d="M0 25.6819H99.9825V20.5566H0V25.6819Z" fill="#E30613"/>
<path fill-rule="evenodd" clip-rule="evenodd" d="M0 20.5559H99.9825V15.4307H0V20.5559Z" fill="white"/>
<path fill-rule="evenodd" clip-rule="evenodd" d="M0 15.0822H99.9825V9.95605H0V15.0822Z" fill="#E30613"/>
<path fill-rule="evenodd" clip-rule="evenodd" d="M0 10.3044H99.9825V5.1792H0V10.3044Z" fill="white"/>
<path fill-rule="evenodd" clip-rule="evenodd" d="M0 5.17823H99.9825V0.0327148H0V5.17823Z" fill="#E30613"/>
<path fill-rule="evenodd" clip-rule="evenodd" d="M0 35.9342H51.8258V0.0327148H0V35.9342Z" fill="#004676"/>
<path fill-rule="evenodd" clip-rule="evenodd" d="M2.76074 2.21249H4.10614L4.49897 0.931641L4.90932 2.21249H6.30359L5.18411 3.00737L5.59907 4.29559L4.49897 3.48872L3.41915 4.29559L3.86546 3.00737L2.76074 2.21249Z" fill="white"/>
<path fill-rule="evenodd" clip-rule="evenodd" d="M11.2725 2.21249H12.6197L13.0365 0.931641L13.4607 2.21249H14.7886L13.7392 3.00737L14.1495 4.29559L13.0365 3.48872L11.9567 4.29559L12.3458 3.00737L11.2725 2.21249Z" fill="white"/>
<path fill-rule="evenodd" clip-rule="evenodd" d="M19.751 2.21249H21.1047L21.5215 0.931641L21.9346 2.21249H23.2938L22.1826 3.00737L22.6345 4.29559L21.5215 3.48872L20.4121 4.29559L20.8566 3.00737L19.751 2.21249Z" fill="white"/>
<path fill-rule="evenodd" clip-rule="evenodd" d="M28.3018 2.21249H29.6942L30.1091 0.931641L30.5241 2.21249H31.8483L30.7325 3.00737L31.2203 4.29559L30.1091 3.48872L28.9961 4.29559L29.4129 3.00737L28.3018 2.21249Z" fill="white"/>
<path fill-rule="evenodd" clip-rule="evenodd" d="M36.8887 2.21249H38.2101L38.6555 0.931641L39.0391 2.21249H40.3937L39.2881 3.00737L39.7012 4.29559L38.6555 3.48872L37.5526 4.29559L37.9694 3.00737L36.8887 2.21249Z" fill="white"/>
<path fill-rule="evenodd" clip-rule="evenodd" d="M45.499 2.21249H46.8712L47.3092 0.931641L47.7131 2.21249H49.0806L47.9593 3.00737L48.3862 4.29559L47.3092 3.48872L46.2284 4.29559L46.613 3.00737L45.499 2.21249Z" fill="white"/>
<path fill-rule="evenodd" clip-rule="evenodd" d="M45.499 10.0406H46.8712L47.3092 8.72559L47.7131 10.0406H49.0806L47.9593 10.8087L48.3862 12.0868L47.3092 11.29L46.2284 12.0868L46.613 10.8087L45.499 10.0406Z" fill="white"/>
<path fill-rule="evenodd" clip-rule="evenodd" d="M36.8887 10.0406H38.2101L38.6555 8.72559L39.0391 10.0406H40.3937L39.2881 10.8087L39.7012 12.0868L38.6555 11.29L37.5526 12.0868L37.9694 10.8087L36.8887 10.0406Z" fill="white"/>
<path fill-rule="evenodd" clip-rule="evenodd" d="M28.3018 10.0406H29.6942L30.1091 8.72559L30.5241 10.0406H31.8483L30.7325 10.8087L31.2203 12.0868L30.1091 11.29L28.9961 12.0868L29.4129 10.8087L28.3018 10.0406Z" fill="white"/>
<path fill-rule="evenodd" clip-rule="evenodd" d="M19.751 10.0406H21.1047L21.5215 8.72559L21.9346 10.0406H23.2938L22.1826 10.8087L22.6345 12.0868L21.5215 11.29L20.4121 12.0868L20.8566 10.8087L19.751 10.0406Z" fill="white"/>
<path fill-rule="evenodd" clip-rule="evenodd" d="M11.2725 10.0406H12.6197L13.0365 8.72559L13.4607 10.0406H14.7886L13.7392 10.8087L14.1495 12.0868L13.0365 11.29L11.9567 12.0868L12.3458 10.8087L11.2725 10.0406Z" fill="white"/>
<path fill-rule="evenodd" clip-rule="evenodd" d="M2.76074 10.0406H4.10614L4.49897 8.72559L4.90932 10.0406H6.30359L5.18411 10.8087L5.59907 12.0868L4.49897 11.29L3.41915 12.0868L3.86546 10.8087L2.76074 10.0406Z" fill="white"/>
<path fill-rule="evenodd" clip-rule="evenodd" d="M2.76074 17.6356H4.10614L4.49897 16.3096L4.90932 17.6356H6.30359L5.18411 18.4268L5.59907 19.7224L4.49897 18.9413L3.41915 19.7224L3.86546 18.4268L2.76074 17.6356Z" fill="white"/>
<path fill-rule="evenodd" clip-rule="evenodd" d="M2.76074 25.3925H4.10614L4.49897 24.084L4.90932 25.3925H6.30359L5.18411 26.228L5.59907 27.4682L4.49897 26.6826L3.41915 27.4682L3.86546 26.228L2.76074 25.3925Z" fill="white"/>
<path fill-rule="evenodd" clip-rule="evenodd" d="M2.76074 33.031H4.10614L4.49897 31.7354L4.90932 33.031H6.30359L5.18411 33.7972L5.59907 35.0569L4.49897 34.2565L3.41915 35.0569L3.86546 33.7972L2.76074 33.031Z" fill="white"/>
<path fill-rule="evenodd" clip-rule="evenodd" d="M11.2725 33.031H12.6197L13.0365 31.7354L13.4607 33.031H14.7886L13.7392 33.7972L14.1495 35.0569L13.0365 34.2565L11.9567 35.0569L12.3458 33.7972L11.2725 33.031Z" fill="white"/>
<path fill-rule="evenodd" clip-rule="evenodd" d="M19.751 33.031H21.1047L21.5215 31.7354L21.9346 33.031H23.2938L22.1826 33.7972L22.6345 35.0569L21.5215 34.2565L20.4121 35.0569L20.8566 33.7972L19.751 33.031Z" fill="white"/>
<path fill-rule="evenodd" clip-rule="evenodd" d="M28.3018 33.031H29.6942L30.1091 31.7354L30.5241 33.031H31.8483L30.7325 33.7972L31.2203 35.0569L30.1091 34.2565L28.9961 35.0569L29.4129 33.7972L28.3018 33.031Z" fill="white"/>
<path fill-rule="evenodd" clip-rule="evenodd" d="M36.8887 33.031H38.2101L38.6555 31.7354L39.0391 33.031H40.3937L39.2881 33.7972L39.7012 35.0569L38.6555 34.2565L37.5526 35.0569L37.9694 33.7972L36.8887 33.031Z" fill="white"/>
<path fill-rule="evenodd" clip-rule="evenodd" d="M45.499 33.031H46.8712L47.3092 31.7354L47.7131 33.031H49.0806L47.9593 33.7972L48.3862 35.0569L47.3092 34.2565L46.2284 35.0569L46.613 33.7972L45.499 33.031Z" fill="white"/>
<path fill-rule="evenodd" clip-rule="evenodd" d="M45.499 25.3925H46.8712L47.3092 24.084L47.7131 25.3925H49.0806L47.9593 26.228L48.3862 27.4682L47.3092 26.6826L46.2284 27.4682L46.613 26.228L45.499 25.3925Z" fill="white"/>
<path fill-rule="evenodd" clip-rule="evenodd" d="M36.8887 25.3925H38.2101L38.6555 24.084L39.0391 25.3925H40.3937L39.2881 26.228L39.7012 27.4682L38.6555 26.6826L37.5526 27.4682L37.9694 26.228L36.8887 25.3925Z" fill="white"/>
<path fill-rule="evenodd" clip-rule="evenodd" d="M28.3018 25.3925H29.6942L30.1091 24.084L30.5241 25.3925H31.8483L30.7325 26.228L31.2203 27.4682L30.1091 26.6826L28.9961 27.4682L29.4129 26.228L28.3018 25.3925Z" fill="white"/>
<path fill-rule="evenodd" clip-rule="evenodd" d="M19.751 25.3925H21.1047L21.5215 24.084L21.9346 25.3925H23.2938L22.1826 26.228L22.6345 27.4682L21.5215 26.6826L20.4121 27.4682L20.8566 26.228L19.751 25.3925Z" fill="white"/>
<path fill-rule="evenodd" clip-rule="evenodd" d="M11.2725 25.3925H12.6197L13.0365 24.084L13.4607 25.3925H14.7886L13.7392 26.228L14.1495 27.4682L13.0365 26.6826L11.9567 27.4682L12.3458 26.228L11.2725 25.3925Z" fill="white"/>
<path fill-rule="evenodd" clip-rule="evenodd" d="M6.91895 29.1341H8.28371L8.69959 27.8164L9.11547 29.1341H10.4682L9.35615 29.9299L9.80523 31.2136L8.69959 30.4104L7.58196 31.2136L8.04026 29.9299L6.91895 29.1341Z" fill="white"/>
<path fill-rule="evenodd" clip-rule="evenodd" d="M15.4785 29.1341H16.8184L17.214 27.8164L17.6677 29.1341H19.0186L17.9166 29.9299L18.3325 31.2136L17.214 30.4104L16.1323 31.2136L16.5482 29.9299L15.4785 29.1341Z" fill="white"/>
<path fill-rule="evenodd" clip-rule="evenodd" d="M23.9902 29.1341H25.3504L25.7635 27.8164L26.1794 29.1341H27.5294L26.4237 29.9299L26.871 31.2136L25.7635 30.4104L24.6874 31.2136L25.0645 29.9299L23.9902 29.1341Z" fill="white"/>
<path fill-rule="evenodd" clip-rule="evenodd" d="M32.5352 29.1341H33.8621L34.2808 27.8164L34.7381 29.1341H36.0623L35.0111 29.9299L35.4196 31.2136L34.2808 30.4104L33.1733 31.2136L33.6196 29.9299L32.5352 29.1341Z" fill="white"/>
<path fill-rule="evenodd" clip-rule="evenodd" d="M41.292 29.1341H42.6844L43.1003 27.8164L43.4876 29.1341H44.8348L43.7615 29.9299L44.1755 31.2136L43.1003 30.4104L41.9983 31.2136L42.4124 29.9299L41.292 29.1341Z" fill="white"/>
<path fill-rule="evenodd" clip-rule="evenodd" d="M41.292 21.553H42.6844L43.1003 20.2334L43.4876 21.553H44.8348L43.7615 22.3073L44.1755 23.6296L43.1003 22.8394L41.9983 23.6296L42.4124 22.3073L41.292 21.553Z" fill="white"/>
<path fill-rule="evenodd" clip-rule="evenodd" d="M32.5352 21.553H33.8621L34.2808 20.2334L34.7381 21.553H36.0623L35.0111 22.3073L35.4196 23.6296L34.2808 22.8394L33.1733 23.6296L33.6196 22.3073L32.5352 21.553Z" fill="white"/>
<path fill-rule="evenodd" clip-rule="evenodd" d="M23.9902 21.553H25.3504L25.7635 20.2334L26.1794 21.553H27.5294L26.4237 22.3073L26.871 23.6296L25.7635 22.8394L24.6874 23.6296L25.0645 22.3073L23.9902 21.553Z" fill="white"/>
<path fill-rule="evenodd" clip-rule="evenodd" d="M15.4785 21.553H16.8184L17.214 20.2334L17.6677 21.553H19.0186L17.9166 22.3073L18.3325 23.6296L17.214 22.8394L16.1323 23.6296L16.5482 22.3073L15.4785 21.553Z" fill="white"/>
<path fill-rule="evenodd" clip-rule="evenodd" d="M6.91895 21.553H8.28371L8.69959 20.2334L9.11547 21.553H10.4682L9.35615 22.3073L9.80523 23.6296L8.69959 22.8394L7.58196 23.6296L8.04026 22.3073L6.91895 21.553Z" fill="white"/>
<path fill-rule="evenodd" clip-rule="evenodd" d="M11.2725 17.6356H12.6197L13.0365 16.3096L13.4607 17.6356H14.7886L13.7392 18.4268L14.1495 19.7224L13.0365 18.9413L11.9567 19.7224L12.3458 18.4268L11.2725 17.6356Z" fill="white"/>
<path fill-rule="evenodd" clip-rule="evenodd" d="M19.751 17.6356H21.1047L21.5215 16.3096L21.9346 17.6356H23.2938L22.1826 18.4268L22.6345 19.7224L21.5215 18.9413L20.4121 19.7224L20.8566 18.4268L19.751 17.6356Z" fill="white"/>
<path fill-rule="evenodd" clip-rule="evenodd" d="M28.3018 17.6356H29.6942L30.1091 16.3096L30.5241 17.6356H31.8483L30.7325 18.4268L31.2203 19.7224L30.1091 18.9413L28.9961 19.7224L29.4129 18.4268L28.3018 17.6356Z" fill="white"/>
<path fill-rule="evenodd" clip-rule="evenodd" d="M36.8887 17.6356H38.2101L38.6555 16.3096L39.0391 17.6356H40.3937L39.2881 18.4268L39.7012 19.7224L38.6555 18.9413L37.5526 19.7224L37.9694 18.4268L36.8887 17.6356Z" fill="white"/>
<path fill-rule="evenodd" clip-rule="evenodd" d="M45.499 17.6356H46.8712L47.3092 16.3096L47.7131 17.6356H49.0806L47.9593 18.4268L48.3862 19.7224L47.3092 18.9413L46.2284 19.7224L46.613 18.4268L45.499 17.6356Z" fill="white"/>
<path fill-rule="evenodd" clip-rule="evenodd" d="M41.292 13.7499H42.6844L43.1003 12.4404L43.4876 13.7499H44.8348L43.7615 14.5125L44.1755 15.7933L43.1003 15.0381L41.9983 15.7933L42.4124 14.5125L41.292 13.7499Z" fill="white"/>
<path fill-rule="evenodd" clip-rule="evenodd" d="M32.5352 13.7499H33.8621L34.2808 12.4404L34.7381 13.7499H36.0623L35.0111 14.5125L35.4196 15.7933L34.2808 15.0381L33.1733 15.7933L33.6196 14.5125L32.5352 13.7499Z" fill="white"/>
<path fill-rule="evenodd" clip-rule="evenodd" d="M23.9902 13.7499H25.3504L25.7635 12.4404L26.1794 13.7499H27.5294L26.4237 14.5125L26.871 15.7933L25.7635 15.0381L24.6874 15.7933L25.0645 14.5125L23.9902 13.7499Z" fill="white"/>
<path fill-rule="evenodd" clip-rule="evenodd" d="M15.4785 13.7499H16.8184L17.214 12.4404L17.6677 13.7499H19.0186L17.9166 14.5125L18.3325 15.7933L17.214 15.0381L16.1323 15.7933L16.5482 14.5125L15.4785 13.7499Z" fill="white"/>
<path fill-rule="evenodd" clip-rule="evenodd" d="M6.91895 13.7499H8.28371L8.69959 12.4404L9.11547 13.7499H10.4682L9.35615 14.5125L9.80523 15.7933L8.69959 15.0381L7.58196 15.7933L8.04026 14.5125L6.91895 13.7499Z" fill="white"/>
<path fill-rule="evenodd" clip-rule="evenodd" d="M6.91895 6.16901H8.28371L8.69959 4.80518L9.11547 6.16901H10.4682L9.35615 6.92516L9.80523 8.21523L8.69959 7.44433L7.58196 8.21523L8.04026 6.92516L6.91895 6.16901Z" fill="white"/>
<path fill-rule="evenodd" clip-rule="evenodd" d="M15.4785 6.16901H16.8184L17.214 4.80518L17.6677 6.16901H19.0186L17.9166 6.92516L18.3325 8.21523L17.214 7.44433L16.1323 8.21523L16.5482 6.92516L15.4785 6.16901Z" fill="white"/>
<path fill-rule="evenodd" clip-rule="evenodd" d="M23.9902 6.16901H25.3504L25.7635 4.80518L26.1794 6.16901H27.5294L26.4237 6.92516L26.871 8.21523L25.7635 7.44433L24.6874 8.21523L25.0645 6.92516L23.9902 6.16901Z" fill="white"/>
<path fill-rule="evenodd" clip-rule="evenodd" d="M32.5352 6.16901H33.8621L34.2808 4.80518L34.7381 6.16901H36.0623L35.0111 6.92516L35.4196 8.21523L34.2808 7.44433L33.1733 8.21523L33.6196 6.92516L32.5352 6.16901Z" fill="white"/>
<path fill-rule="evenodd" clip-rule="evenodd" d="M41.292 6.16901H42.6844L43.1003 4.80518L43.4876 6.16901H44.8348L43.7615 6.92516L44.1755 8.21523L43.1003 7.44433L41.9983 8.21523L42.4124 6.92516L41.292 6.16901Z" fill="white"/>
</g>
<defs>
<clipPath id="clip0_1_9821">
<rect width="100" height="66.6667" fill="white"/>
</clipPath>
</defs>
</svg>
