<svg width="500" height="500" viewBox="0 0 500 500" fill="none" xmlns="http://www.w3.org/2000/svg">
<path d="M105.507 233.131C111.725 237.218 117.972 241.264 124.154 245.401C131.264 250.164 138.781 254.025 147.269 255.585C150.865 256.246 154.545 256.633 158.195 256.733C165.621 256.938 173.052 256.838 180.478 256.933C182.233 256.953 183.125 256.467 183 254.532C182.163 241.625 186.695 230.554 194.121 220.205C204.37 205.925 214.092 191.274 224.241 176.918C230.639 167.868 239.293 161.821 250.164 159.169C264.123 155.764 276.929 158.622 289.108 165.933C311.16 179.165 333.358 192.151 355.48 205.258C362.68 209.525 369.84 213.862 377.02 218.154C377.281 218.31 377.592 218.37 378.424 218.676C377.848 217.638 377.572 217.006 377.181 216.455C363.267 197.085 371.274 170.35 393.306 161.971C401.459 158.873 409.487 158.963 417.685 161.746C432.01 166.614 446.491 171.047 460.731 176.146C475.337 181.381 485.716 191.113 489.782 206.487C490.75 210.137 490.986 214.068 491.011 217.869C491.136 235.453 491.096 253.042 491.056 270.627C491.011 290.207 478.837 307.651 460.34 313.823C455.13 315.558 449.404 316.521 443.913 316.526C328.639 316.661 213.365 316.621 98.0912 316.571C81.6049 316.566 68.4379 303.735 67.786 287.264C67.6707 284.35 67.7208 281.432 67.786 278.514C67.8362 276.293 66.8233 275.004 64.7876 274.167C54.8998 270.095 44.7563 266.5 35.2446 261.677C23.296 255.62 15.494 245.602 11.0515 232.891C7.47148 222.637 6.99514 212.303 9.86822 201.944C13.5736 188.601 21.0496 177.605 32.1007 169.202C42.2091 161.51 53.6864 156.717 65.9408 153.503C76.1144 150.845 86.4334 151.041 96.7675 151.041C118.89 151.041 141.007 151.141 163.129 151.001C177.845 150.91 191.77 161.44 195.58 174.893C199.782 189.724 196.473 203.117 186.184 214.479C174.982 226.854 160.612 232.264 144.035 232.219C132.267 232.184 120.494 232.209 108.726 232.219C107.683 232.219 106.645 232.344 105.602 232.414C105.567 232.65 105.537 232.886 105.502 233.126L105.507 233.131ZM271.885 304.186V304.261C328.484 304.261 385.083 304.286 441.682 304.211C445.658 304.206 449.795 304.046 453.576 302.968C468.633 298.676 478.365 286.963 478.626 271.108C478.922 253.022 478.736 234.932 478.666 216.841C478.646 212.152 477.603 207.64 475.467 203.403C471.616 195.766 465.173 191.028 457.441 188.18C447.158 184.394 436.678 181.13 426.274 177.671C420.833 175.86 415.463 173.669 409.893 172.436C399.93 170.23 389.049 176.061 384.923 185.222C380.45 195.155 383.067 206.712 391.085 213.286C395.758 217.116 401.529 218.23 406.965 220.205C416.195 223.565 424.002 228.599 427.327 238.441C428.871 243.009 430.135 247.763 429.097 252.656C427.954 258.031 422.809 260.117 418.121 257.289C410.018 252.401 401.935 247.492 393.802 242.653C372.548 230.008 351.263 217.402 329.998 204.767C313.447 194.929 296.955 184.986 280.344 175.244C264.72 166.078 244.698 169.006 233.808 184.781C223.865 199.181 214.102 213.712 203.874 227.907C197.496 236.752 194.412 246.233 195.365 257.084C195.515 258.799 195.34 260.604 194.979 262.293C194.307 265.442 192.326 267.674 189.232 268.576C187.417 269.108 185.452 269.298 183.551 269.303C175.203 269.323 166.86 269.248 158.511 269.163C146.547 269.042 135.165 266.455 124.887 260.243C115.876 254.797 107.107 248.941 98.2968 243.165C93.1674 239.805 88.0931 236.345 83.1292 232.745C80.7976 231.056 79.8951 228.433 80.6522 225.625C81.4895 222.517 83.425 220.325 86.9048 220.035C88.399 219.909 89.9032 219.794 91.3974 219.794C108.591 219.829 125.789 219.959 142.982 219.919C151.045 219.899 158.927 218.756 166.102 214.695C175.368 209.45 182.183 202.335 184.424 191.474C187.849 174.898 175.033 163.085 161.835 163.355C136.64 163.867 111.424 163.526 86.2128 163.521C69.3254 163.521 53.8819 168.5 40.5445 178.578C24.5294 190.682 16.918 206.677 22.2179 227.004C25.2364 238.572 32.5971 247.046 43.3724 252.06C52.2574 256.191 61.5485 259.45 70.614 263.216C74.9712 265.026 78.2906 268.24 79.2583 272.843C80.1157 276.93 79.6995 281.267 80.2511 285.444C80.6773 288.678 81.1536 292.127 82.6177 294.96C86.1376 301.774 92.32 304.221 99.8211 304.216C157.172 304.166 214.524 304.191 271.875 304.191L271.885 304.186ZM413.428 239.941C411.763 235.649 403.74 231.066 399.443 231.577C404.332 234.5 408.88 237.223 413.428 239.941ZM314.505 340.022C314.545 340.248 314.585 340.473 314.625 340.699C327.772 343.793 340.924 346.886 354.151 350V328.73C340.653 332.576 327.581 336.296 314.51 340.022H314.505ZM271.313 295.813C214.378 295.813 157.448 295.808 100.513 295.823C95.8248 295.823 91.4927 294.865 89.5823 290.132C88.6346 287.775 88.8603 284.932 88.6397 282.3C88.3438 278.745 88.5845 275.069 87.7873 271.64C85.8318 263.256 80.221 257.906 72.3689 254.717C63.8299 251.252 55.0703 248.224 46.8171 244.178C34.1816 237.985 28.3351 227.275 29.2026 213.321C29.9747 200.946 36.4931 191.565 46.441 184.665C58.7306 176.146 72.4943 171.859 87.5115 171.839C112.221 171.804 136.93 171.794 161.64 171.744C167.902 171.734 172.581 174.356 175.258 180.032C177.123 183.993 176.928 188.295 175.469 192.226C171.332 203.373 162.583 208.933 151.246 210.653C146.658 211.35 141.939 211.365 137.281 211.38C121.171 211.44 105.061 211.34 88.9455 211.36C81.3542 211.37 75.5779 215 73.2464 221.063C70.3532 228.579 72.9155 236.466 79.6594 240.938C91.0063 248.46 102.318 256.031 113.68 263.527C127.098 272.377 141.709 277.516 157.949 277.546C166.544 277.561 175.143 277.792 183.737 277.757C189.263 277.732 194.552 276.699 198.644 272.507C201.713 269.363 203.548 265.668 203.648 261.185C203.753 256.532 203.733 251.859 204.164 247.231C204.596 242.573 206.847 238.572 209.504 234.756C218.555 221.759 227.49 208.683 236.55 195.696C239.754 191.103 242.507 186.129 247.406 182.91C254.175 178.458 261.405 177.51 269.137 179.611C275.756 181.406 281.131 185.583 286.912 188.952C302.386 197.978 317.779 207.138 333.182 216.284C342.679 221.925 352.125 227.646 361.607 233.312C379.492 244.007 397.332 254.777 415.293 265.342C424.143 270.547 436.728 263.642 437.52 253.378C438.99 234.35 429.869 219.904 412.004 213.06C408.439 211.696 404.798 210.518 401.193 209.269C394.891 207.083 391.757 202.51 391.3 196.017C390.849 189.569 393.923 184.926 399.373 181.948C403.771 179.546 408.343 180.438 412.911 182.033C421.997 185.202 431.188 188.07 440.273 191.234C446.541 193.415 452.899 195.486 458.875 198.329C466.577 201.994 470.177 208.833 470.277 217.131C470.498 235.132 470.694 253.148 470.237 271.143C469.906 284.04 461.082 293.647 448.055 295.286C444.43 295.742 440.749 295.918 437.094 295.928C413.889 295.983 390.679 295.958 367.474 295.958H271.308C271.308 295.908 271.308 295.853 271.308 295.803L271.313 295.813ZM206.155 282.801L206.441 283.463C207.414 283.463 208.391 283.463 209.364 283.463C286.501 283.483 363.633 283.498 440.77 283.513C441.938 283.513 443.111 283.543 444.274 283.478C452.222 283.037 457.792 277.947 457.843 270.637C457.958 252.802 457.888 234.962 457.868 217.121C457.868 213.892 456.494 211.28 453.736 209.59C451.971 208.507 450.091 207.509 448.135 206.853C434.587 202.295 420.994 197.862 407.441 193.32C405.871 192.793 404.588 192.718 403.896 194.373C403.159 196.147 404.202 197.281 405.751 197.872C407.611 198.579 409.532 199.121 411.437 199.708C421.46 202.791 430.28 207.82 437.505 215.532C444.149 222.622 447.724 231.106 449.324 240.562C450.692 248.655 451.094 256.743 446.977 264.169C442.108 272.953 434.843 278.674 424.459 279.552C418.913 280.018 413.698 278.75 408.895 275.937C401.454 271.585 394.023 267.207 386.622 262.785C366.807 250.952 347.021 239.063 327.19 227.245C308.142 215.893 289.053 204.606 269.989 193.279C263.18 189.233 254.972 190.672 250.846 196.659C240.316 211.937 229.781 227.215 219.237 242.488C217.046 245.662 215.842 249.091 216.048 253.017C216.193 255.845 216.113 258.683 216.058 261.516C215.922 268.07 213.591 273.826 209.509 278.9C208.436 280.239 207.268 281.502 206.14 282.796L206.155 282.801ZM60.9067 236.772C60.7362 235.473 60.7162 234.656 60.5206 233.884C58.4548 225.655 59.9289 217.984 64.6623 211.089C70.4786 202.626 78.9524 198.935 89.0408 198.9C106.986 198.83 124.932 198.945 142.877 198.89C145.78 198.88 148.759 198.765 151.562 198.093C156.19 196.985 160.236 194.568 162.793 190.446C163.666 189.043 163.921 186.912 163.6 185.287C163.475 184.665 160.948 184.204 159.509 184.199C139.307 184.129 119.11 184.234 98.9085 184.119C86.4585 184.048 74.0938 184.119 62.5112 189.699C56.3288 192.678 50.4924 196.027 46.3508 201.728C40.038 210.413 39.8174 220.621 45.734 228.102C49.5197 232.881 55.0903 234.41 60.9017 236.767L60.9067 236.772ZM122.339 283.463C122.385 283.267 122.43 283.067 122.475 282.871C115.249 278.705 108.024 274.533 101.04 270.507C101.04 274.272 100.969 278.143 101.125 282.009C101.145 282.515 102.283 283.343 102.955 283.393C105.271 283.568 107.613 283.463 109.94 283.463C114.071 283.463 118.208 283.463 122.339 283.463Z" fill="#15151E"/>
</svg>
