<svg width="500" height="500" viewBox="0 0 500 500" fill="none" xmlns="http://www.w3.org/2000/svg">
<path d="M225.3 137.473C240.179 137.835 251.491 139.297 262.747 141.443C274.14 143.614 285.537 146.081 297.05 147.177C306.487 148.076 316.095 147.242 325.623 147.001C336.824 146.724 348.02 146.182 359.222 145.905C367.252 145.709 374.553 143.001 381.795 139.92C392.298 135.448 402.82 131.026 413.333 126.588C419.238 124.096 425.057 121.382 431.067 119.171C445.218 113.97 458.605 117.94 465.57 132.965C467.982 138.171 470.485 143.337 472.842 148.569C477.937 159.88 473.832 172.298 462.791 178.031C453.565 182.825 444.158 187.283 434.73 191.67C428.921 194.373 425.062 199.167 420.79 203.58C410.383 214.329 400.212 225.329 389.413 235.671C379.734 244.942 368.393 251.907 355.955 257.133C346.287 261.194 336.859 265.812 327.271 270.068C319.171 273.666 311.698 272.601 304.934 266.757C304.246 266.164 303.16 265.676 302.286 265.716C287.165 266.35 272.049 267.093 256.928 267.767C243.059 268.38 229.189 268.998 215.319 269.465C212.762 269.551 210.148 269.073 207.626 268.551C204.636 267.933 201.465 270.777 202.229 273.812C204.279 281.978 206.41 290.129 208.601 298.26C211.571 309.285 213.983 320.305 211.495 331.828C209.616 340.522 206.5 348.743 202.661 356.718C199.917 362.422 196.389 367.512 191.113 371.221C187.203 373.975 182.836 375.472 178.128 375.909C171.052 376.568 164.188 374.844 157.263 373.844C153.791 373.341 150.333 372.748 146.861 372.276C139.414 371.271 131.956 369.909 124.413 371.07C115.182 372.492 105.986 374.13 96.7696 375.648C88.2066 377.055 79.6336 378.412 71.0656 379.819C65.3821 380.749 59.7136 381.829 54.015 382.663C35.0398 385.447 19.9541 370.623 24.9743 351.075C26.3764 345.607 29.7734 341.281 33.9443 337.537C44.2812 328.265 54.5728 318.933 64.9549 309.712C66.6183 308.235 67.1309 306.923 66.3067 304.777C62.8293 295.717 64.4926 286.968 67.8696 278.229C71.3169 269.304 74.3822 260.239 77.6537 251.244C80.719 242.811 83.8598 234.409 86.9252 225.977C90.0509 217.374 93.3022 208.811 96.1766 200.127C99.6189 189.74 106.554 182.77 116.303 178.247C119.393 176.815 122.494 175.353 125.383 173.564C126.569 172.83 127.71 171.308 128.001 169.956C130.358 158.9 137.429 152.77 148.067 150.131C156.63 148.011 165.113 145.478 173.751 143.754C181.59 142.187 189.58 141.327 197.53 140.393C207.897 139.181 218.289 138.207 225.31 137.478L225.3 137.473ZM228.295 149.935C228.264 150.157 228.234 150.378 228.199 150.599C226.194 150.699 224.179 150.689 222.189 150.92C207.676 152.604 193.163 154.302 178.66 156.081C175.434 156.478 172.208 157.041 169.062 157.84C163.163 159.338 157.359 161.207 151.449 162.654C144.037 164.468 140.549 168.056 139.911 175.715C139.61 179.293 137.991 181.64 134.961 183.217C130.318 185.64 125.73 188.182 120.991 190.409C114.413 193.494 110.207 198.424 107.86 205.278C104.142 216.138 100.177 226.912 96.2771 237.706C90.3926 253.993 84.493 270.269 78.5532 286.536C77.0808 290.566 76.4878 294.621 77.6989 298.792C78.5532 301.747 79.508 304.682 80.4929 307.597C81.8095 311.501 81.714 311.974 78.6436 314.732C69.1359 323.28 59.593 331.793 50.1305 340.391C46.3868 343.793 42.5324 347.145 39.2409 350.964C35.7886 354.964 35.8187 360.859 38.5726 365.005C41.1053 368.819 46.6682 370.944 51.3668 370.08C58.0955 368.844 64.8444 367.698 71.5932 366.583C84.2719 364.487 96.9404 362.316 109.654 360.427C116.991 359.336 124.388 358.366 131.79 358.04C136.574 357.829 141.434 358.748 146.228 359.396C154.58 360.527 162.896 361.909 171.243 363.065C177.48 363.929 183.037 362.653 187.002 357.281C191.817 350.763 194.435 343.23 196.957 335.642C199.857 326.903 200.098 318.129 197.786 309.25C194.766 297.647 191.661 286.069 188.832 274.42C188.384 272.571 188.651 270.149 189.51 268.46C191.842 263.887 194.741 259.601 197.289 255.128C199.219 251.736 199.56 252.043 203.053 253.57C207.696 255.611 212.43 256.882 217.591 256.621C230.702 255.962 243.822 255.475 256.938 254.907C266.295 254.5 275.652 254.073 285.009 253.651C293.029 253.289 301.045 252.877 309.065 252.611C309.839 252.586 311.055 253.249 311.361 253.917C313.985 259.606 317.613 260.51 323.437 257.832C331.291 254.219 339.07 250.43 347.02 247.033C358.337 242.188 369.357 236.721 378.252 228.143C390.096 216.721 401.403 204.74 412.891 192.951C417.127 188.604 421.142 183.976 426.705 181.253C435.73 176.835 444.781 172.468 453.912 168.272C461.374 164.84 463.495 160.081 460.233 152.574C457.947 147.307 455.475 142.116 452.887 136.995C450.223 131.714 445.866 129.397 440.102 130.478C436.71 131.116 433.374 132.327 430.168 133.654C416.243 139.408 402.338 145.197 388.508 151.172C379.116 155.227 369.689 158.785 359.237 158.941C347.533 159.122 335.834 159.79 324.13 159.976C311.04 160.187 297.924 161.634 284.878 158.865C275.989 156.981 267.009 155.478 258.024 154.076C248.139 152.533 238.209 151.302 228.3 149.935H228.295ZM330.894 127.824C319.095 129.87 307.512 131.875 295.934 133.88C295.919 134.136 295.904 134.397 295.889 134.654C307.396 137.121 318.899 139.589 330.899 142.161V127.819L330.894 127.824ZM228.641 157.956C239.049 159.418 249.486 160.72 259.858 162.393C270.481 164.107 281.039 166.257 291.652 168.056C294.271 168.499 296.994 168.499 299.663 168.433C320.98 167.901 342.302 167.423 363.614 166.669C372.835 166.343 381.312 162.921 389.699 159.318C405.303 152.619 420.941 146.021 436.575 139.387C436.952 139.227 437.394 139.212 437.786 139.081C442.675 137.433 444.515 137.468 446.831 142.774C448.821 147.337 451.002 151.82 453.198 156.292C454.153 158.242 453.62 159.438 451.771 160.318C445.54 163.282 439.469 166.659 433.062 169.172C420.333 174.162 410.846 183.072 401.866 192.951C393.267 202.414 384.353 211.62 375.121 220.469C365.649 229.55 354.106 235.51 342.045 240.54C335.367 243.329 328.839 246.495 322.286 249.575C320.206 250.555 318.738 251.058 317.361 248.349C315.939 245.55 313.095 244.465 309.949 244.585C302.009 244.887 294.075 245.229 286.14 245.58C269.014 246.339 251.888 247.108 234.762 247.877C229.666 248.103 224.556 248.158 219.48 248.606C214.033 249.083 209.103 247.651 204.219 245.495C198.942 243.168 194.992 244.214 191.837 249.003C188.55 253.993 185.615 259.214 182.495 264.319C179.555 269.124 180.449 274.098 181.741 279.109C184.012 287.903 186.309 296.692 188.505 305.501C189.47 309.375 190.389 313.27 191.048 317.205C192.324 324.808 190.163 331.934 187.445 338.884C185.967 342.668 184.304 346.411 182.364 349.974C179.61 355.05 176.64 355.904 170.891 355.04C158.344 353.155 145.775 351.306 133.157 350.045C123.252 349.055 113.554 351.688 103.83 353.22C93.3575 354.874 82.9151 356.733 72.4526 358.482C65.4575 359.653 58.4523 360.793 51.4522 361.949C51.2863 361.974 51.1255 362.015 50.9597 362.04C48.6381 362.397 46.3566 362.482 45.03 360.05C44.0752 358.301 44.9395 355.778 47.0702 353.844C51.1356 350.155 55.2362 346.507 59.3116 342.828C67.6987 335.245 76.0154 327.582 84.4779 320.089C88.9905 316.089 90.3574 311.506 88.3071 305.803C87.2116 302.752 86.0659 299.642 85.5985 296.466C85.2417 294.028 85.4126 291.275 86.2066 288.953C90.071 277.611 94.1916 266.36 98.2822 255.098C101.775 245.48 105.358 235.897 108.875 226.289C111.247 219.811 113.75 213.379 115.85 206.816C117.363 202.087 120.695 199.494 124.856 197.409C129.986 194.836 135.042 192.102 140.087 189.358C144.7 186.851 147.223 182.765 147.64 177.67C147.977 173.559 149.57 171.071 153.71 170.097C160.193 168.574 166.565 166.494 173.093 165.217C181.113 163.649 189.223 162.438 197.344 161.488C207.133 160.343 216.973 159.629 226.792 158.735C227.375 158.684 227.963 158.73 228.546 158.73C228.581 158.468 228.616 158.212 228.651 157.951L228.641 157.956ZM416.911 162.112C416.539 162.192 416.142 162.212 415.8 162.358C407.202 165.951 398.619 169.584 390.006 173.152C381.724 176.579 373.202 179.107 364.156 179.398C347.02 179.946 329.889 180.564 312.748 180.956C305.07 181.132 297.296 181.544 289.723 180.589C278.074 179.117 266.597 176.333 254.983 174.524C246.094 173.142 237.094 171.559 228.159 171.619C218.023 171.69 207.892 173.403 197.776 174.574C186.178 175.916 174.585 177.333 163.364 180.825C161.379 181.444 160.122 182.162 159.55 184.388C157.896 190.775 154.173 195.846 148.514 199.228C143.032 202.504 137.363 205.494 131.685 208.424C129.715 209.439 128.253 210.65 127.504 212.751C124.634 220.831 121.745 228.902 118.84 236.967C112.981 253.244 107.307 269.591 101.131 285.747C99.0661 291.144 98.0611 296.129 100.704 301.446C100.815 301.667 100.89 301.913 100.966 302.149C104.282 312.979 101.785 322.18 93.267 329.728C88.9202 333.582 84.6086 337.471 80.307 341.376C79.4527 342.15 78.714 343.054 77.4426 344.406C82.7392 343.507 87.2418 342.708 91.7544 341.979C99.9907 340.652 108.242 339.441 116.463 338.049C129.433 335.853 142.258 337.255 155.082 339.301C160.354 340.14 165.645 340.868 170.947 341.497C171.56 341.572 172.615 340.858 172.897 340.245C174.228 337.381 175.474 334.461 176.545 331.491C178.389 326.391 179.384 321.119 178.052 315.752C174.942 303.22 171.67 290.727 168.469 278.219C167.017 272.541 167.027 266.882 169.791 261.636C173.153 255.244 176.851 249.023 180.49 242.781C186.254 232.892 197.686 228.168 209.103 233.329C213.41 235.274 217.757 235.62 222.48 235.349C239.842 234.344 257.23 233.751 274.612 232.987C285.974 232.485 297.331 231.937 308.693 231.439C312.854 231.258 316.909 231.927 320.553 233.932C322.286 234.887 323.537 234.726 325.176 233.932C329.583 231.801 334.141 229.972 338.523 227.796C344.754 224.701 351.141 221.811 357.005 218.107C367.352 211.57 375.272 202.258 383.74 193.569C394.353 182.675 403.499 170.202 416.901 162.117L416.911 162.112Z" fill="#15151E"/>
</svg>
