<svg width="500" height="500" viewBox="0 0 500 500" fill="none" xmlns="http://www.w3.org/2000/svg">
<path d="M458.019 251.704C458.481 252.341 458.797 252.933 459.253 253.379C469.338 263.309 468.515 279.778 455.447 289.03C446.916 295.068 437.463 299.401 428.111 303.894C418.317 308.593 408.482 313.227 398.498 317.504C390.108 321.1 381.528 324.269 372.947 327.389C361.393 331.591 349.824 335.768 338.144 339.595C326.229 343.496 314.459 347.995 301.927 349.72C285.247 352.017 268.493 352.929 251.768 350.793C240.7 349.379 229.928 346.375 219.558 342.157C212.03 339.098 204.563 335.899 197.016 332.89C190.386 330.247 183.405 330.859 176.5 331.029C157.81 331.486 139.124 332.218 120.434 332.393C107.255 332.519 94.0607 332.017 81.1524 328.863C76.303 327.679 71.4537 326.436 66.7046 324.906C60.2605 322.83 53.8866 323.858 47.3873 324.49C35.6425 325.633 25.0562 322.74 16.8569 313.743C12.9553 309.46 10.9493 304.25 10.3576 298.408C9.71569 292.119 9.81599 285.971 11.6765 279.873C14.1538 271.749 19.2189 265.56 25.7683 260.39C32.0168 255.46 38.7919 251.479 46.4746 249.267C52.4373 247.552 58.5705 247.111 64.7789 247.086C77.9228 247.025 87.772 253.675 96.7486 262.256C97.4056 262.887 98.0976 263.484 98.7445 264.126C102.27 267.616 103.418 267.772 107.606 264.888C113.227 261.022 118.949 257.391 125.399 254.989C133.929 251.815 142.524 251.338 151.401 253.414C160.111 255.45 167.192 260.621 174.73 264.908C190.682 273.99 206.394 283.499 222.506 292.28C236.608 299.962 251.206 299.747 265.709 292.891C268.994 291.337 270.92 289.185 270.418 285.113C269.706 279.311 269.791 273.524 271.727 267.827C273.457 262.737 276.511 258.625 280.538 254.473C277.439 252.582 274.54 250.762 271.592 249.031C259.275 241.805 246.949 234.604 234.617 227.402C218.931 218.24 203.335 208.933 187.513 200.011C181.069 196.38 173.742 196.481 166.52 197.027C156.962 197.749 148.627 201.716 140.639 206.661C134.646 210.367 127.951 212.032 121.046 212.809C107.942 214.293 96.1769 210.808 85.6658 202.92C80.3049 198.898 74.4977 195.352 69.6182 190.814C57.2064 179.275 60.5062 158.849 75.7113 151.377C80.2196 149.16 85.0941 148.844 90.0889 149.055C107.094 149.782 124.11 150.329 141.12 151.021C157.544 151.693 173.962 152.495 190.386 153.177C198.806 153.528 207.236 153.694 215.661 154.025C241.678 155.048 267.69 156.146 293.707 157.149C323.812 158.313 353.926 159.386 384.03 160.544C410.132 161.547 436.235 162.555 462.327 163.709C467.367 163.929 472.472 164.2 477.121 166.788C484.112 170.674 487.888 176.657 488.359 184.44C488.595 188.352 487.843 192.373 487.141 196.275C486.539 199.61 485.822 202.483 487.632 205.994C490.942 212.408 490.415 219.208 486.97 225.632C483.44 232.222 479.794 238.726 474.092 243.801C469.749 247.667 464.599 249.834 459.077 251.293C458.776 251.373 458.491 251.519 458.019 251.709V251.704ZM141.491 165.549C141.491 165.614 141.486 165.674 141.481 165.74C140.649 165.694 139.816 165.644 138.979 165.609C121.803 164.887 104.627 164.135 87.4461 163.463C82.7772 163.282 78.3992 165.689 77.296 169.305C76.0523 173.392 75.7364 177.675 80.6058 181.371C85.0339 184.726 89.6777 187.79 94.1409 191.095C99.7375 195.232 105.745 198.181 112.861 198.477C119.1 198.732 125.353 198.381 130.855 195.392C139.927 190.468 148.768 185.197 159.184 183.462C172.247 181.286 184.94 181.682 196.755 188.502C207.893 194.926 218.991 201.42 230.084 207.915C248.639 218.772 267.189 229.634 285.709 240.541C291.14 243.741 296.586 246.935 301.801 250.461C304.765 252.467 304.635 254.929 301.801 257.145C299.72 258.77 297.423 260.124 295.177 261.528C287.815 266.117 283.497 272.315 284.485 281.392C284.655 282.962 284.62 284.557 284.731 286.136C285.297 294.165 281.962 300.012 275.087 304.14C268.498 308.091 261.422 310.649 253.844 311.502C248.408 312.113 242.801 312.75 237.436 312.083C227.376 310.835 218.148 306.908 209.377 301.702C192.392 291.628 175.096 282.069 158.141 271.949C147.364 265.52 136.657 264.888 125.664 270.766C121.281 273.108 117.325 276.262 112.907 278.524C104.963 282.586 96.2522 283.218 89.2715 275.279C87.5815 273.353 85.5605 271.719 83.6899 269.953C76.4635 263.133 67.9433 260.345 58.064 261.659C49.4334 262.807 41.9011 266.262 34.9605 271.538C26.5556 277.932 23.316 286.197 24.5797 296.432C25.1565 301.101 27.1574 304.842 31.5203 307.289C36.7608 310.228 42.2772 310.433 47.9941 309.852C55.4011 309.094 62.7428 308.768 70.0746 310.83C77.5066 312.921 84.9787 315.288 92.5913 316.231C102.661 317.479 112.891 317.966 123.047 317.89C143.828 317.735 164.605 317.023 185.381 316.456C192.096 316.276 198.485 317.79 204.633 320.132C213.63 323.562 222.316 327.865 231.438 330.894C239.371 333.527 247.631 335.859 255.905 336.656C275.418 338.547 294.911 337.754 313.877 332.042C323.265 329.214 332.572 326.125 341.865 322.996C350.44 320.107 358.976 317.088 367.466 313.964C375.485 311.015 383.589 308.217 391.367 304.711C406.662 297.821 421.807 290.6 436.892 283.263C440.964 281.282 444.87 278.739 448.366 275.866C452.984 272.07 452.969 267.21 448.556 263.208C445.999 260.892 442.935 259.131 440.106 257.105C437.624 255.325 435.001 253.695 432.719 251.684C429.926 249.217 430.021 245.992 431.155 242.703C432.168 239.764 434.043 237.773 437.278 237.673C441.355 237.547 445.442 237.643 449.524 237.653C456.194 237.668 462.422 236.218 466.665 230.692C469.624 226.836 472.071 222.543 474.403 218.255C476.359 214.654 475.536 211.43 472.091 209.429C469.719 208.05 469.664 206.631 470.286 204.329C471.69 199.118 473.104 193.883 473.982 188.572C475.02 182.274 471.82 178.718 465.461 178.417C460.878 178.196 456.294 177.996 451.711 177.81C425.192 176.727 398.678 175.644 372.16 174.576C359.818 174.079 347.477 173.603 335.135 173.111C313.957 172.274 292.78 171.411 271.597 170.609C253.914 169.942 236.232 169.4 218.55 168.703C192.863 167.695 167.182 166.602 141.496 165.544L141.491 165.549ZM247.43 249.458C247.535 249.277 247.646 249.102 247.751 248.921C238.759 240.642 229.768 232.367 220.51 223.847C217.958 228.069 215.636 231.911 213.174 235.988C224.949 240.621 236.187 245.04 247.425 249.463L247.43 249.458ZM191.093 176.005C282.559 179.631 374.02 183.256 465.903 186.897C465.14 190.016 464.498 192.649 463.857 195.282C463.009 198.757 462.096 202.218 461.334 205.713C460.512 209.469 461.384 212.623 464.809 214.855C465.326 215.191 465.873 216.455 465.652 216.796C463.43 220.176 461.495 223.932 458.596 226.64C455.111 229.89 450.301 229.504 445.748 229.087C440.658 228.616 435.578 228.621 430.819 230.858C426.451 232.909 424.018 236.635 422.77 241.103C420.032 250.892 424.365 256.99 431.39 261.614C434.434 263.62 437.584 265.47 440.608 267.506C443.12 269.196 443.21 269.898 440.658 271.337C434.229 274.968 427.81 278.679 421.125 281.793C407.058 288.353 392.977 294.917 378.614 300.78C366.488 305.729 353.991 309.781 341.604 314.064C331.083 317.7 320.572 321.396 309.885 324.48C303.767 326.245 297.348 327.308 290.989 327.86C282.193 328.627 273.332 328.813 264.496 328.893C255.589 328.973 246.944 327.012 238.514 324.325C232.832 322.514 227.331 320.152 221.764 318.006C221.037 317.725 220.385 317.264 219.889 316.456C221.935 317.038 223.996 317.564 226.022 318.206C235.936 321.351 245.931 321.606 256.161 319.781C265.293 318.151 273.828 315.248 281.506 310.027C288.923 304.982 293.065 298.057 293.141 288.955C293.166 285.871 293.201 282.776 292.96 279.707C292.629 275.52 294.364 272.456 297.669 270.154C299.991 268.539 302.393 267.045 304.785 265.535C310.482 261.945 313.295 256.544 312.057 250.907C311.134 246.73 308.045 244.011 304.605 241.945C292.303 234.548 279.901 227.312 267.52 220.05C255.273 212.874 243.007 205.738 230.741 198.597C219.698 192.168 208.665 185.724 197.582 179.375C195.536 178.201 193.255 177.434 191.078 176.481L191.098 176.015L191.093 176.005ZM446.46 214.469C446.661 210.392 446.656 206.656 447.107 202.975C447.358 200.954 446.796 200.538 444.956 200.462C425.779 199.72 406.602 198.863 387.425 198.136C356.564 196.967 325.702 195.889 294.841 194.745C281.16 194.239 267.485 193.652 253.809 193.116C253.037 193.086 252.259 193.186 251.487 193.221C253.177 194.896 255.003 195.964 256.833 197.037C270.734 205.176 284.66 213.26 298.517 221.47C304.504 225.015 310.773 228.28 316.174 232.603C327.813 241.915 329.759 254.523 323.491 266.423C320.442 272.205 315.557 276.207 309.945 279.341C308.285 280.269 307.674 281.337 307.794 283.298C308.26 291.041 307.177 298.573 303.928 305.684C303.05 307.605 301.942 309.415 300.944 311.276C301.099 311.532 301.255 311.782 301.405 312.038C340.391 299.586 379.351 287.079 416.01 267.983C415.639 267.436 415.453 267.09 415.202 266.799C408.477 259.141 406.141 250.1 408.006 240.321C411.095 224.092 423.026 214.609 439.6 214.469C441.922 214.449 444.248 214.469 446.47 214.469H446.46ZM213.118 313.838C208.119 312.379 203.184 310.574 198.094 309.556C193.31 308.598 188.355 307.996 183.491 308.071C163.547 308.372 143.613 309.24 123.673 309.385C113.609 309.46 103.469 308.989 93.494 307.73C85.8764 306.767 78.4444 304.23 70.9572 302.299C63.9915 300.504 56.9757 300.379 49.8647 301.086C46.5599 301.412 43.1999 301.582 39.8901 301.377C35.472 301.101 33.3808 298.769 32.9295 294.391C32.2776 288.042 34.2985 282.947 39.4087 278.875C45.8478 273.745 52.8786 270.515 61.2083 269.983C67.4217 269.587 72.6472 271.393 77.1656 275.565C80.7562 278.88 84.2466 282.325 88.0478 285.379C93.5241 289.777 99.9531 290.459 106.728 289.486C114.356 288.388 120.273 283.94 126.467 279.908C133.257 275.49 140.644 273.374 148.522 276.588C152.414 278.178 155.984 280.57 159.65 282.686C173.732 290.81 187.788 298.979 201.86 307.119C205.656 309.315 209.478 311.476 213.289 313.653C213.234 313.713 213.174 313.778 213.118 313.838ZM149.67 294.401C144.355 288.458 135.498 288.664 131.772 294.401H149.67ZM66.9002 286.603C65.0497 284.09 61.1632 283.784 57.071 285.966C60.2605 286.171 63.455 286.382 66.9002 286.603ZM155.503 174.516C133.753 173.668 112.004 172.826 90.2594 171.988C89.0909 171.943 87.9124 171.833 86.764 171.958C86.2074 172.018 85.4301 172.454 85.2546 172.911C85.079 173.362 85.415 174.139 85.741 174.626C86.1021 175.157 86.6788 175.564 87.2204 175.94C92.2603 179.43 97.2451 183.011 102.385 186.346C110.735 191.762 119.511 190.984 128.137 187.268C133.292 185.047 138.011 181.832 143.141 179.555C147.424 177.65 152.022 176.456 157.062 174.751C156.14 174.611 155.824 174.531 155.503 174.516Z" fill="#15151E"/>
</svg>
