<svg width="500" height="500" viewBox="0 0 500 500" fill="none" xmlns="http://www.w3.org/2000/svg">
<path d="M316.294 139.414C317.078 139.414 317.731 139.49 318.364 139.404C328.123 138.063 337.878 136.657 347.643 135.356C357.579 134.035 367.529 132.191 377.565 134.11C384.11 135.366 390.57 137.054 397.045 138.651C403.273 140.188 409.472 141.841 415.68 143.463C421.562 145 427.449 146.507 433.306 148.129C439.082 149.732 444.874 151.294 450.56 153.167C459.426 156.086 466.749 161.059 470.401 170.065C475.751 183.245 471.486 198.737 458.215 205.859C448.546 211.048 438.078 214.192 427.223 215.91C414.565 217.915 401.877 216.915 389.194 216.161C373.924 215.252 358.664 214.208 343.383 213.499C340.49 213.364 337.496 214.378 334.618 215.127C328.867 216.619 327.094 221.451 325.652 226.403C322.945 235.716 326.647 243.437 331.604 251.001C336.472 258.425 341.208 265.97 345.453 273.761C350.16 282.395 350.858 291.839 349.627 301.513C347.854 315.402 340.063 325.307 329.068 333.163C327.933 333.977 326.787 334.781 325.084 335.981C328.992 336.318 332.247 336.725 335.517 336.865C355.645 337.724 375.777 338.523 395.909 339.357C398.165 339.452 400.435 339.497 402.66 339.834C404.931 340.18 405.604 339.206 405.815 337.147C407.091 324.468 417.056 312.956 429.514 309.907C452.002 304.401 476.097 313.518 488.132 331.219C495.587 342.175 497.852 354.566 494.914 367.566C491.453 382.866 482.803 395.037 470.497 404.41C461.882 410.965 451.911 415.094 440.936 415.451C425.907 415.938 410.858 416.028 395.819 415.993C313.275 415.792 230.737 415.586 148.193 415.2C109.31 415.014 70.4212 414.441 31.5378 413.979C20.9191 413.853 12.2694 409.679 6.51296 400.542C1.05794 391.883 2.10273 381.088 8.62766 372.448C13.2087 366.386 19.3569 362.543 26.2083 359.851C32.4771 357.384 38.8614 354.953 45.4164 353.567C52.3181 352.105 59.4659 351.543 66.5383 351.211C87.0826 350.242 107.637 349.609 128.186 348.735C129.055 348.7 130.336 347.75 130.647 346.931C133.355 339.774 135.897 332.55 138.463 325.342C142.005 315.387 145.526 305.426 149.052 295.465C152.031 287.067 154.944 278.648 158.008 270.28C161.755 260.048 165.507 249.816 169.471 239.664C174.283 227.338 179.306 215.092 184.253 202.82C189.603 189.554 195.053 176.329 200.302 163.023C205.255 150.475 209.881 137.797 214.914 125.28C217.752 118.217 219.681 110.718 224.237 104.414C230.501 95.7441 238.899 90.0781 248.985 86.7126C259.202 83.302 269.595 83.317 279.917 85.5925C295.554 89.0433 306.831 98.2003 313.396 112.893C316.887 120.709 317.962 128.866 316.319 137.33C316.199 137.953 316.304 138.616 316.304 139.424L316.294 139.414ZM426.304 356.671C424.832 356.671 423.928 356.696 423.029 356.671C413.5 356.345 403.971 356.088 394.453 355.661C366.223 354.396 337.999 352.984 309.764 351.789C299.492 351.352 289.205 351.286 278.923 351.196C276.24 351.171 274.422 350.367 273.568 347.735C273.106 346.314 272.518 344.937 272.046 343.521C270.233 338.081 268.249 332.691 266.717 327.171C265.762 323.73 266.817 322.414 270.343 322.836C275.366 323.434 280.339 324.554 285.277 325.689C290.486 326.889 295.624 328.291 301.074 327.889C307.474 327.412 312.743 324.333 318.052 321.118C335.08 310.806 338.29 292.436 329.007 277.086C324.617 269.828 319.911 262.765 315.445 255.552C312.225 250.348 309.94 244.788 308.996 238.655C307.82 230.995 309.151 223.711 311.788 216.583C313.763 211.239 316.671 206.517 321.689 203.483C328.299 199.485 335.427 196.994 343.228 197.25C351.074 197.506 358.91 198.079 366.746 198.541C378.258 199.219 389.761 200.163 401.284 200.52C409.286 200.766 417.448 201.062 425.289 199.786C433.09 198.521 440.655 195.537 448.174 192.89C454.006 190.84 456.538 186.375 456.236 180.202C455.965 174.706 452.238 170.467 445.813 168.613C437.249 166.142 428.675 163.691 420.055 161.41C407.483 158.085 394.85 155.001 382.282 151.651C374.833 149.661 367.379 148.943 359.713 150.088C349.316 151.64 338.883 152.987 328.47 154.453C312.512 156.709 296.569 159.105 280.59 161.179C276.697 161.687 272.378 162.073 268.761 160.918C261.252 158.517 256.877 152.439 254.013 145.306C252.994 142.77 254.013 139.836 256.269 138.259C258.449 136.737 260.056 138.274 261.608 139.424C262.432 140.032 263 141.022 263.582 141.901C264.913 143.91 265.968 146.145 267.53 147.949C270.931 151.867 275.155 154.72 280.56 154.207C292.294 153.097 299.085 142.438 300.426 134.427C302.692 120.935 295.006 109.964 285.548 104.876C275.266 99.3406 264.24 98.7729 253.245 102.405C244.525 105.283 237.764 110.738 234.393 119.674C231.455 127.465 228.607 135.29 225.558 143.036C219.771 157.743 213.879 172.411 208.012 187.088C200.448 206.015 192.727 224.876 185.323 243.864C179.672 258.36 174.333 272.977 169.003 287.599C163.995 301.347 159.153 315.161 154.306 328.969C150.609 339.497 146.832 350 143.476 360.639C142.532 363.643 141.11 364.748 138.252 364.673C137.67 364.658 137.087 364.763 136.499 364.783C114.107 365.607 91.7189 366.521 69.3261 367.209C57.5622 367.571 45.9941 368.681 35.1192 373.594C30.7441 375.573 26.0024 377.004 22.7374 380.832C20.3012 383.69 18.1865 386.88 19.7487 390.828C21.3611 394.901 24.7717 396.896 29.0262 397.463C30.5985 397.674 32.1857 397.84 33.768 397.855C58.5165 398.141 83.2701 398.518 108.019 398.644C190.808 399.066 273.593 399.417 356.383 399.749C382.809 399.854 409.231 399.874 435.657 399.769C443.628 399.739 451.052 397.353 457.989 393.349C466.438 388.472 471.592 380.762 476.168 372.574C482.366 361.488 480.628 345.776 472.019 336.885C464.122 328.728 454.267 324.604 442.9 324.609C439.278 324.609 435.521 325.126 432.06 326.176C424.646 328.427 420.151 337.116 422.27 344.561C423.38 348.448 424.802 352.246 426.279 356.671H426.304ZM172.977 186.586C165.588 198.244 158.204 209.908 150.679 221.782C156.009 223.857 160.786 225.71 165.929 227.714C168.521 213.987 171.058 200.545 173.6 187.103C173.394 186.932 173.183 186.762 172.977 186.591V186.586ZM443.975 181.693C441.092 182.808 438.234 183.994 435.32 185.034C424.496 188.891 413.309 189.575 401.952 188.791C385.024 187.626 368.092 186.515 351.164 185.375C341.118 184.697 331.403 185.707 322.005 189.791C310.231 194.909 303.144 203.74 299.377 215.79C296.257 225.776 295.539 235.787 298.211 245.888C300.406 254.186 304.832 261.429 309.538 268.542C313.381 274.353 317.399 280.17 320.262 286.474C323.949 294.601 322.352 302.909 315.264 308.244C312.678 310.188 309.95 311.971 307.182 313.649C301.793 316.914 296.102 315.974 290.425 314.563C282.911 312.689 275.517 310.123 267.571 310.971C261.88 311.579 257.66 314.257 255.435 319.606C253.898 323.303 254.104 327.281 255.224 330.928C257.494 338.327 260.116 345.63 262.874 352.864C265.581 359.956 271.192 362.865 278.576 362.99C290.109 363.186 301.647 363.327 313.17 363.789C332.383 364.557 351.581 365.642 370.794 366.446C389.088 367.214 407.387 367.872 425.686 368.425C434.808 368.701 440.404 360.725 437.36 352.125C436.249 348.991 435.104 345.872 433.969 342.747C432.929 339.889 434.165 337.624 437.164 336.961C447.25 334.735 455.935 337.865 463.022 344.807C468.452 350.121 469.261 357.289 466.689 364.135C463.982 371.338 459.541 377.642 453.062 382.213C446.311 386.975 438.52 387.914 430.624 387.934C414.068 387.975 397.512 387.668 380.956 387.628C314.642 387.467 248.327 387.482 182.018 387.181C135.274 386.97 88.5343 386.347 41.7898 385.915C40.74 385.905 39.6852 385.915 38.6353 385.915C38.56 385.604 38.4846 385.292 38.4093 384.981C41.3578 383.911 44.2712 382.726 47.2649 381.796C56.2612 379.004 65.584 379.285 74.8465 378.938C96.9026 378.114 118.959 377.215 141.01 376.271C148.303 375.96 152.382 372.112 154.843 364.025C156.707 357.897 158.761 351.829 160.881 345.781C163.85 337.302 166.979 328.884 169.993 320.42C174.373 308.108 178.582 295.732 183.088 283.465C188.453 268.863 193.938 254.306 199.604 239.815C204.3 227.795 209.414 215.94 214.191 203.955C221.364 185.948 228.426 167.9 235.488 149.852C238.884 141.177 242.144 132.447 245.54 123.773C248.001 117.499 253.25 114.495 259.368 113.134C265.652 111.737 272.036 111.999 278.099 114.47C285.789 117.604 293.268 129.223 285.583 138.566C281.279 143.794 277.25 143.257 274.382 137.003C271.368 130.448 265.893 126.53 258.951 125.691C251.778 124.822 244.409 131.247 242.229 138.656C240.341 145.075 242.707 150.545 245.735 155.749C249.915 162.937 255.636 168.538 263.507 171.888C269.344 174.375 275.17 174.209 281.178 173.219C285.789 172.461 290.415 171.823 295.037 171.14C303.37 169.909 311.698 168.638 320.041 167.468C328.395 166.293 336.758 165.223 345.121 164.103C351.245 163.284 357.358 162.425 363.481 161.641C371.588 160.607 379.178 163.254 386.853 165.122C396.889 167.564 406.9 170.1 416.881 172.762C425.169 174.973 433.396 177.414 441.634 179.795C442.448 180.031 443.176 180.563 443.95 180.955C443.96 181.206 443.965 181.457 443.975 181.708V181.693ZM255.204 370.786C253.144 367.792 250.743 365.291 249.508 362.312C246.107 354.109 242.918 345.786 240.17 337.342C238.07 330.888 237.372 324.187 239.17 317.386C242.797 303.688 254.154 295.269 268.565 294.566C276.361 294.184 283.815 296.043 291.224 298.082C295.79 299.338 300.1 300.609 304.143 296.535C305.786 294.878 306.469 293.682 305.168 291.668C301.923 286.645 298.819 281.531 295.474 276.579C289.215 267.321 283.911 257.602 281.751 246.546C278.717 230.995 280.811 215.956 287.673 201.71C290.024 196.828 293.243 192.367 296.102 187.656C295.554 187.656 294.76 187.57 293.992 187.671C289.436 188.253 284.875 188.776 280.344 189.514C270.379 191.142 261.066 189.283 252.376 184.305C249.01 182.376 245.851 180.081 242.44 177.846C215.426 240.995 191.597 305.326 169.526 370.786H255.219H255.204Z" fill="#15151E"/>
</svg>
