<svg width="500" height="500" viewBox="0 0 500 500" fill="none" xmlns="http://www.w3.org/2000/svg">
<path d="M174.896 398.995C173.167 398.524 171.463 397.922 169.709 397.602C158.928 395.642 148.132 393.752 137.345 391.818C137.065 391.767 136.814 391.512 136.513 390.75C149.349 388.119 162.191 385.482 175.763 382.701C175.763 386.685 175.798 390.379 175.748 394.073C175.723 395.717 175.523 397.356 175.403 399H174.901L174.896 398.995ZM131.772 377.478C153.885 377.478 175.999 377.378 198.107 377.513C212.317 377.603 226.005 375.689 239.317 370.25C256.043 363.419 266.784 351.811 270.713 334.178C271.244 331.787 272.447 330.815 274.422 330.168C276.161 329.602 277.981 329.221 279.62 328.454C280.487 328.048 281.429 327.086 281.675 326.194C282.532 323.071 283.013 319.848 283.79 316.696C285.514 309.704 286.672 302.632 286.07 295.439C285.298 286.237 283.78 277.08 283.344 267.868C282.873 257.954 281.133 247.929 284.446 238.101C285.414 235.234 285.584 234.988 288.336 236.422C295.122 239.965 301.914 243.494 308.695 247.052C310.59 248.045 312.474 248.987 313.517 251.107C315.832 255.793 318.298 260.4 320.709 265.036C324.528 272.374 330.187 277.631 338.282 279.751C349.744 282.754 360.365 278.789 367.126 268.925C371.627 262.359 373.316 254.931 370.76 247.308C367.553 237.725 363.728 228.337 359.969 218.944C356.807 211.04 357.684 203.858 363.107 197.277C372.324 186.09 383.797 178.186 397.766 174.241C402.913 172.788 408.336 172.747 413.594 174.231C424.465 177.299 435.332 180.381 446.168 183.564C454.553 186.025 462.462 184.591 470.146 180.962C479.148 176.712 485.348 169.585 490.054 161.089C496.459 149.516 499.938 137.487 494.805 124.36C489.658 111.204 479.699 104.177 466.131 101.67C457.38 100.052 448.829 101.63 440.384 103.585C426.535 106.793 412.792 110.372 399.425 115.364C387.476 119.824 376.058 125.288 365.102 131.733C354.892 137.738 344.767 143.903 334.708 150.163C317.657 160.774 300.621 171.419 283.74 182.296C280.953 184.09 278.908 184.23 276.161 182.697C263.431 175.604 248.69 178.707 240.31 190.591C234.831 198.364 230.09 206.655 224.787 214.554C219.479 222.468 217.194 230.808 219.514 240.281C221.825 249.729 223.75 259.267 226.025 268.725C227.834 276.253 227.103 283.541 223.619 290.312C220.577 296.216 215.234 299.83 209.129 302.296C207.916 302.787 207.199 302.542 206.513 301.324C204.568 297.855 202.518 294.442 200.408 291.069C195.341 282.979 188.249 277.2 178.951 275.2C161.098 271.356 145.926 276.283 134.178 290.618C131.637 293.72 131.677 293.7 128.088 291.921C122.334 289.069 116.445 286.573 109.999 285.771C95.6245 283.977 83.8309 288.377 75.1399 300.291C74.6838 300.918 73.4809 301.394 72.684 301.319C62.5645 300.346 52.46 299.249 42.3456 298.201C33.1583 297.249 24.9284 299.71 17.4102 305.008C7.29573 312.13 3.06549 322.209 3.00034 334.148C2.97528 339.035 4.3486 343.811 6.60907 348.287C11.0999 357.164 16.894 364.877 25.2843 370.471C33.8199 376.165 43.368 378.435 53.4374 378.4C79.5506 378.31 105.664 377.994 131.777 377.769C131.777 377.673 131.777 377.573 131.777 377.478H131.772ZM53.4023 362.767C37.3685 362.837 26.5924 354.668 20.3072 340.353C15.2951 328.935 22.267 316.726 34.8725 314.12C39.9197 313.077 44.6612 314.285 49.5129 314.701C57.9734 315.423 66.4238 316.385 74.8442 317.468C80.2222 318.159 84.1116 315.834 86.4673 311.478C91.7952 301.644 103.433 298.432 114.395 303.018C118.675 304.807 122.926 306.677 127.101 308.691C133.23 311.649 138.689 309.564 142.327 305.429C145.495 301.83 148.487 297.955 152.156 294.928C159.94 288.513 175.999 286.583 183.973 295.61C187.662 299.785 190.243 304.942 193.236 309.714C195.125 312.721 196.759 315.774 200.203 317.533C205.185 320.084 209.946 319.227 214.637 317.192C222.822 313.648 229.879 308.621 235.257 301.309C239.297 295.82 240.741 289.5 242.149 283.074C244.109 274.138 241.262 265.753 239.427 257.242C237.763 249.523 236.024 241.815 234.43 234.081C233.583 229.986 235.633 226.618 237.688 223.38C242.791 215.331 247.898 207.281 253.201 199.367C255.862 195.397 261.992 192.876 268.357 196.224C272.026 198.154 275.775 199.948 279.58 201.592C280.507 201.993 282.061 201.968 282.883 201.442C297.799 191.959 312.59 182.281 327.531 172.838C337.56 166.502 347.735 160.388 357.939 154.333C367.066 148.92 376.078 143.231 385.591 138.585C394.894 134.039 404.617 130.21 414.436 126.902C423.939 123.699 433.743 121.308 443.531 119.058C449.09 117.779 454.889 116.862 460.563 116.932C468.512 117.033 475.213 120.2 479.138 127.774C482.045 133.387 482.04 139.041 480.13 144.93C478.185 150.94 475.248 156.418 471.018 161.034C464.287 168.387 456.122 170.723 446.373 167.58C436.73 164.472 426.996 161.611 417.213 158.969C407.875 156.453 398.502 157.07 389.42 160.287C374.484 165.585 361.809 174.286 351.644 186.461C342.497 197.412 339.75 209.642 345.013 223.24C348.221 231.53 351.423 239.82 354.706 248.075C357.313 254.626 355.559 260.996 350.276 263.688C344.963 266.394 338.758 264.735 335.786 259.553C332.448 253.738 329.3 247.809 326.167 241.885C324.659 239.033 322.864 236.697 319.822 235.169C307.818 229.124 295.929 222.844 283.94 216.759C283.108 216.338 281.635 216.498 280.768 216.959C278.808 218.012 276.532 219.065 275.314 220.779C273.345 223.545 271.906 226.758 270.618 229.936C266.127 240.993 266.247 252.551 267.345 264.154C268.217 273.346 269.3 282.513 270.272 291.695C270.999 298.557 270.553 305.363 268.758 312.009C267.586 316.35 264.027 317.618 259.947 317.994C256.353 318.325 256.293 318.385 256.348 322.084C256.514 333.832 252.289 343.676 242.786 350.613C238.711 353.585 233.719 355.41 228.972 357.329C219.885 361.008 210.287 361.865 200.558 361.845C177.613 361.805 154.672 361.83 131.727 361.83C131.727 361.91 131.727 361.985 131.727 362.066C105.619 362.306 79.5055 362.637 53.3973 362.752L53.4023 362.767ZM263.255 206.745C262.052 206.168 261.476 206.469 260.749 207.702C256.193 215.406 251.457 222.999 246.876 230.683C246.329 231.595 245.988 232.933 246.194 233.941C247.542 240.612 249.171 247.228 250.494 253.904C251.848 260.735 253.542 267.577 253.983 274.489C254.324 279.872 253.351 285.44 252.249 290.778C251.386 294.948 249.978 299.209 247.863 302.882C239.678 317.092 227.428 326.264 211.465 330.108C202.152 332.349 194.043 329.211 187.898 322.239C184.389 318.26 182.144 313.167 179.312 308.591C177.698 305.98 176.23 303.263 173.212 301.88C168.741 299.835 161.023 301.549 157.359 305.579C154.472 308.757 151.941 312.31 148.788 315.192C141.766 321.603 133.586 323.507 124.544 319.969C119.838 318.129 115.242 315.994 110.611 313.964C104.23 311.172 99.7845 312.415 95.8951 318.174C91.3942 324.841 85.3546 329.402 77.1498 329.076C68.3485 328.725 59.5923 327.241 50.806 326.339C46.5808 325.903 42.3355 325.362 38.1053 325.402C32.9027 325.452 28.7025 330.599 30.4969 334.775C34.8173 344.834 40.7617 351.029 52.3247 351.039C70.6791 351.054 89.0285 350.773 107.383 350.683C137.25 350.533 167.122 350.307 196.99 350.382C208.107 350.407 218.843 349.225 229.248 344.989C236.766 341.932 242.199 337.14 244.034 329.181C244.861 325.592 244.52 321.728 244.63 317.989C244.745 314.165 245.537 310.516 249.121 308.576C251.241 307.428 253.817 306.977 256.248 306.601C257.792 306.366 258.504 305.895 258.529 304.351C258.589 301.274 258.99 298.176 258.724 295.129C257.892 285.591 256.569 276.088 255.897 266.539C254.935 252.886 254.349 239.168 259.722 226.122C261.506 221.786 263.756 217.621 266.062 213.531C266.819 212.193 268.428 211.336 270.027 209.922C267.551 208.765 265.4 207.772 263.265 206.75L263.255 206.745ZM176.796 334.344H149.49C156.336 330.479 161.85 325.086 166.671 318.731C170.135 324.074 173.388 329.091 176.796 334.344ZM102.752 334.78C104.24 332.96 105.313 331.452 106.616 330.168C106.982 329.808 108.105 329.888 108.706 330.153C111.553 331.416 114.345 332.81 117.157 334.158C117.157 334.364 117.157 334.574 117.152 334.78H102.757H102.752ZM396.959 146.334C397.771 146.334 398.588 146.394 399.395 146.324C409.163 145.466 418.611 146.87 427.924 149.917C435.577 152.423 443.406 154.388 451.095 156.804C455.716 158.257 459.234 156.759 462.272 153.436C465.394 150.017 467.519 146.043 469.043 141.667C471.634 134.239 467.83 128.38 460.001 128.415C456.367 128.43 452.663 128.826 449.115 129.603C434.66 132.771 420.315 136.359 406.517 141.823C403.259 143.111 400.026 144.464 396.783 145.787C396.843 145.968 396.904 146.153 396.964 146.334H396.959ZM337.77 236.457C327.37 214.995 328.017 194.866 344.898 176.687C344.572 176.502 344.251 176.316 343.925 176.131C327.25 186.746 310.575 197.367 293.563 208.198C294.601 208.945 295.022 209.336 295.513 209.592C304.345 214.173 313.251 218.618 321.992 223.37C325.661 225.365 329.19 227.761 332.377 230.452C334.232 232.016 335.279 234.532 336.688 236.617C337.049 236.562 337.41 236.512 337.77 236.457Z" fill="#15151E"/>
</svg>
